<?xml version="1.0" encoding="utf-8"?>
<!-- Generator: Adobe Illustrator 22.0.0, SVG Export Plug-In . SVG Version: 6.00 Build 0)  -->
<svg version="1.1" id="chick" xmlns="http://www.w3.org/2000/svg" xmlns:xlink="http://www.w3.org/1999/xlink" x="0px" y="0px"
	 viewBox="0 0 576 576" style="enable-background:new 0 0 576 576;" xml:space="preserve">
<style type="text/css">
	.st0{fill:#E8E5CF;}
	.st1{fill:#BF8840;}
	.st2{fill:#C14444;}
	.st3{fill:#FFFFFF;}
</style>
<polygon points="20,477.759491 20,264.0379639 55.6202545,264.0379639 55.6202545,194.4936676 91.240509,194.4936676 
	91.240509,157.1772156 128.5569611,157.1772156 128.5569611,123.2531662 199.7974701,123.2531662 199.7974701,50.3164558 
	233.7215118,50.3164558 233.7215118,13 269.3417664,13 269.3417664,50.3164558 306.6582336,50.3164558 306.6582336,82.5443039 
	342.2784729,82.5443039 342.2784729,119.8607559 447.4430237,119.8607559 447.4430237,157.1772156 484.759491,157.1772156 
	484.759491,192.7974701 520.3797607,192.7974701 520.3797607,262.3417664 556,262.3417664 556,477.759491 520.3797607,477.759491 
	520.3797607,513.3797607 484.759491,513.3797607 484.759491,549 91.240509,549 91.240509,513.3797607 55.6202545,513.3797607 
	55.6202545,477.759491 "/>
<polygon class="st0" points="55.6202545,477.759491 55.6202545,265.7341919 91.240509,265.7341919 91.240509,192.7974701 
	125.1645584,192.7974701 128.5569611,192.7974701 128.5569611,157.1772156 447.4430237,157.1772156 447.4430237,192.7974701 
	483.0632935,192.7974701 483.0632935,264.0379639 520.3797607,264.0379639 520.3797607,477.759491 484.759491,477.759491 
	484.759491,513.3797607 306.6582336,513.3797607 92.9367065,513.3797607 92.9367065,477.759491 55.6202545,477.759491 "/>
<rect x="199.7974701" y="409.9114075" class="st1" width="178.1012726" height="67.8480988"/>
<rect x="269.3417664" y="477.759491" class="st2" width="37.3164558" height="71.240509"/>
<polygon points="377.8987427,370.8987427 377.8987427,338.6708984 415.2151794,338.6708984 415.2151794,299.6582336 
	447.4430237,299.6582336 447.4430237,370.8987427 377.8987427,370.8987427 "/>
<polygon points="199.7974701,370.8987427 199.7974701,299.6582336 164.1772156,299.6582336 164.1772156,335.2784729 
	125.1645584,335.2784729 125.1645584,370.8987427 "/>
<polygon class="st2" points="233.7215118,153.7848053 233.7215118,50.3164558 269.3417664,50.3164558 269.3417664,85.9367065 
	306.6582336,85.9367065 306.6582336,119.8607559 342.2784729,119.8607559 342.2784729,153.7848053 233.7215118,153.7848053 "/>
<polyline class="st3" points="377.8987427,338.6708984 377.8987427,299.6582336 415.2151794,299.6582336 415.2151794,338.6708984 
	"/>
<polyline class="st3" points="125.1645584,335.2784729 125.1645584,299.6582336 164.1772156,299.6582336 164.1772156,335.2784729 
	"/>
</svg>
