<?xml version="1.0" encoding="utf-8"?>
<!-- Generator: Adobe Illustrator 22.0.0, SVG Export Plug-In . SVG Version: 6.00 Build 0)  -->
<svg version="1.1" xmlns="http://www.w3.org/2000/svg" xmlns:xlink="http://www.w3.org/1999/xlink" x="0px" y="0px"
	 viewBox="0 0 576 576" style="enable-background:new 0 0 576 576;" xml:space="preserve">
<style type="text/css">
	.st0{display:none;}
</style>
<g id="chick" class="st0">
	
		<image style="display:inline;overflow:visible;" width="200" height="200" xlink:href="default.jpg"  transform="matrix(2.48 0 0 2.53 41 41)">
	</image>
</g>
<g id="Layer_2" class="st0">
	
		<image style="display:inline;overflow:visible;" width="512" height="512" xlink:href="../../../../Downloads/User-512.png"  transform="matrix(1 0 0 1 42 26)">
	</image>
</g>
<g id="Layer_3">
	<g>
		<polygon points="167.3338776,329.9579773 197.469101,329.9579773 197.469101,363.1114197 227.6043091,363.1114197 
			227.6043091,392.9252625 378.280365,392.9252625 378.280365,365.7246704 404.6486511,365.7246704 404.6486511,350.678894 
			404.6486511,317.5254211 431.0169678,317.5254211 431.0169678,292.6603088 468.6859741,292.6603088 468.6859741,280.2277527 
			468.6859741,122.7487793 438.5507813,122.7487793 438.5507813,89.5953064 404.6486511,89.5953064 404.6486511,52.2976532 
			370.7465515,52.2976532 370.7465515,15 227.6043091,15 227.6043091,52.2976532 193.7021942,52.2976532 193.7021942,89.5953064 
			156.0331879,89.5953064 156.0331879,126.8929596 128.3265076,126.8929596 128.3265076,296.8045044 167.3338776,296.8045044 		"/>
		<polygon points="495.0542908,523.7023315 495.0542908,494.6930542 464.9190674,494.6930542 464.9190674,449.1070251 
			434.7838745,449.1070251 434.7838745,414.2989197 163.5669861,414.2989197 163.5669861,449.1070251 114.5972672,449.1070251 
			114.5972672,490.5488892 84.462059,490.5488892 84.462059,527.8465576 58.09375,527.8465576 58.09375,561 521.4226074,561 
			521.4226074,523.7023315 		"/>
	</g>
</g>
<g id="Layer_4" class="st0">
	
		<image style="display:inline;overflow:visible;" width="600" height="564" xlink:href="../../../../Downloads/408215-contacts.png"  transform="matrix(1 0 0 1 -24 -123)">
	</image>
</g>
</svg>
